<?xml version="1.0" standalone="no"?><!DOCTYPE svg PUBLIC "-//W3C//DTD SVG 1.1//EN" "http://www.w3.org/Graphics/SVG/1.1/DTD/svg11.dtd"><svg t="1590289807788" class="icon" viewBox="0 0 1024 1024" version="1.1" xmlns="http://www.w3.org/2000/svg" p-id="1107" width="48" height="48" xmlns:xlink="http://www.w3.org/1999/xlink"><defs><style type="text/css"></style></defs><path d="M806 911H218c-57.9 0-105-47.1-105-105V218c0-57.9 47.1-105 105-105h588c57.9 0 105 47.1 105 105v588c0 57.9-47.1 105-105 105zM218 155c-34.7 0-63 28.3-63 63v588c0 34.7 28.3 63 63 63h588c34.7 0 63-28.3 63-63V218c0-34.7-28.3-63-63-63H218z" p-id="1108"></path><path d="M593.3 451.6c-5.4 0-10.7-2.1-14.8-6.1-8.2-8.2-8.3-21.5-0.1-29.7l155-155.8c8.2-8.2 21.5-8.2 29.7-0.1 8.2 8.2 8.3 21.5 0.1 29.7l-155 155.8c-4.1 4.1-9.5 6.2-14.9 6.2zM281 763.9c-5.4 0-10.7-2-14.8-6.1-8.2-8.2-8.3-21.5-0.1-29.7l155-155.8c8.2-8.2 21.5-8.3 29.7-0.1 8.2 8.2 8.3 21.5 0.1 29.7l-155 155.8c-4.1 4.2-9.5 6.2-14.9 6.2z" p-id="1109"></path><path d="M773.6 271.8h-126c-11.6 0-21-9.4-21-21s9.4-21 21-21h126c11.6 0 21 9.4 21 21s-9.4 21-21 21z" p-id="1110"></path><path d="M773.6 397.8c-11.6 0-21-9.4-21-21v-126c0-11.6 9.4-21 21-21s21 9.4 21 21v126c0 11.6-9.4 21-21 21zM375.7 795.7h-126c-11.6 0-21-9.4-21-21s9.4-21 21-21h126c11.6 0 21 9.4 21 21s-9.4 21-21 21z" p-id="1111"></path><path d="M249.7 795.7c-11.6 0-21-9.4-21-21v-126c0-11.6 9.4-21 21-21s21 9.4 21 21v126c0 11.6-9.4 21-21 21z" p-id="1112"></path></svg>